<mxfile host="Electron" modified="2024-02-29T10:36:45.915Z" agent="Mozilla/5.0 (Windows NT 10.0; Win64; x64) AppleWebKit/537.36 (KHTML, like Gecko) draw.io/22.0.3 Chrome/114.0.5735.289 Electron/25.8.4 Safari/537.36" etag="8ygBTSpiTe8cn3TS33SJ" version="22.0.3" type="device">
  <diagram name="Page-1" id="jwIUeSGBcwA--1RXkkxF">
    <mxGraphModel dx="2687" dy="1558" grid="1" gridSize="10" guides="1" tooltips="1" connect="1" arrows="1" fold="1" page="1" pageScale="1" pageWidth="1169" pageHeight="827" math="0" shadow="0">
      <root>
        <mxCell id="0" />
        <mxCell id="1" parent="0" />
        <mxCell id="cXgWGchafQ5C-qkIUdc8-190" value="" style="group" parent="1" vertex="1" connectable="0">
          <mxGeometry x="290" y="-130" width="180" height="150" as="geometry" />
        </mxCell>
        <mxCell id="cXgWGchafQ5C-qkIUdc8-164" value="" style="whiteSpace=wrap;html=1;" parent="cXgWGchafQ5C-qkIUdc8-190" vertex="1">
          <mxGeometry y="20" width="180" height="130" as="geometry" />
        </mxCell>
        <mxCell id="cXgWGchafQ5C-qkIUdc8-177" value="clk_i(1)" style="text;html=1;align=left;verticalAlign=middle;resizable=1;points=[];autosize=0;strokeColor=none;fillColor=none;movable=1;rotatable=1;deletable=1;editable=1;locked=0;connectable=1;" parent="cXgWGchafQ5C-qkIUdc8-190" vertex="1">
          <mxGeometry y="30" width="50" height="20" as="geometry" />
        </mxCell>
        <mxCell id="cXgWGchafQ5C-qkIUdc8-178" value="reset_i(1)" style="text;html=1;align=left;verticalAlign=middle;resizable=1;points=[];autosize=0;strokeColor=none;fillColor=none;movable=1;rotatable=1;deletable=1;editable=1;locked=0;connectable=1;" parent="cXgWGchafQ5C-qkIUdc8-190" vertex="1">
          <mxGeometry y="60" width="50" height="20" as="geometry" />
        </mxCell>
        <mxCell id="cXgWGchafQ5C-qkIUdc8-179" value="IR_i(14)" style="text;html=1;align=left;verticalAlign=middle;resizable=1;points=[];autosize=0;strokeColor=none;fillColor=none;movable=1;rotatable=1;deletable=1;editable=1;locked=0;connectable=1;" parent="cXgWGchafQ5C-qkIUdc8-190" vertex="1">
          <mxGeometry y="90" width="50" height="20" as="geometry" />
        </mxCell>
        <mxCell id="cXgWGchafQ5C-qkIUdc8-181" value="nPr_inst (nano processeur)" style="text;html=1;align=left;verticalAlign=middle;resizable=1;points=[];autosize=0;strokeColor=none;fillColor=none;movable=1;rotatable=1;deletable=1;editable=1;locked=0;connectable=1;" parent="cXgWGchafQ5C-qkIUdc8-190" vertex="1">
          <mxGeometry width="120" height="20" as="geometry" />
        </mxCell>
        <mxCell id="cXgWGchafQ5C-qkIUdc8-184" value="data_i(0)" style="text;html=1;align=left;verticalAlign=middle;resizable=1;points=[];autosize=0;strokeColor=none;fillColor=none;movable=1;rotatable=1;deletable=1;editable=1;locked=0;connectable=1;" parent="cXgWGchafQ5C-qkIUdc8-190" vertex="1">
          <mxGeometry y="120" width="70" height="20" as="geometry" />
        </mxCell>
        <mxCell id="cXgWGchafQ5C-qkIUdc8-185" value="PC_o(8)" style="text;html=1;align=right;verticalAlign=middle;resizable=1;points=[];autosize=0;strokeColor=none;fillColor=none;movable=1;rotatable=1;deletable=1;editable=1;locked=0;connectable=1;" parent="cXgWGchafQ5C-qkIUdc8-190" vertex="1">
          <mxGeometry x="90" y="30" width="90" height="20" as="geometry" />
        </mxCell>
        <mxCell id="cXgWGchafQ5C-qkIUdc8-186" value="addr_o(8)" style="text;html=1;align=right;verticalAlign=middle;resizable=1;points=[];autosize=0;strokeColor=none;fillColor=none;movable=1;rotatable=1;deletable=1;editable=1;locked=0;connectable=1;" parent="cXgWGchafQ5C-qkIUdc8-190" vertex="1">
          <mxGeometry x="90" y="60" width="90" height="20" as="geometry" />
        </mxCell>
        <mxCell id="OZgYHWr0lchqSJbdcPem-25" value="data_o(8)" style="text;html=1;align=right;verticalAlign=middle;resizable=1;points=[];autosize=0;strokeColor=none;fillColor=none;movable=1;rotatable=1;deletable=1;editable=1;locked=0;connectable=1;" vertex="1" parent="cXgWGchafQ5C-qkIUdc8-190">
          <mxGeometry x="90" y="90" width="90" height="20" as="geometry" />
        </mxCell>
        <mxCell id="OZgYHWr0lchqSJbdcPem-26" value="data_wr_o(1)" style="text;html=1;align=right;verticalAlign=middle;resizable=1;points=[];autosize=0;strokeColor=none;fillColor=none;movable=1;rotatable=1;deletable=1;editable=1;locked=0;connectable=1;" vertex="1" parent="cXgWGchafQ5C-qkIUdc8-190">
          <mxGeometry x="90" y="120" width="90" height="20" as="geometry" />
        </mxCell>
        <mxCell id="cXgWGchafQ5C-qkIUdc8-197" value="clk_i(1)" style="text;html=1;align=right;verticalAlign=middle;resizable=1;points=[];autosize=0;strokeColor=none;fillColor=none;movable=1;rotatable=1;deletable=1;editable=1;locked=0;connectable=1;" parent="1" vertex="1">
          <mxGeometry x="-510" y="70" width="70" height="20" as="geometry" />
        </mxCell>
        <mxCell id="cXgWGchafQ5C-qkIUdc8-198" value="reset_i(1)" style="text;html=1;align=right;verticalAlign=middle;resizable=1;points=[];autosize=0;strokeColor=none;fillColor=none;movable=1;rotatable=1;deletable=1;editable=1;locked=0;connectable=1;" parent="1" vertex="1">
          <mxGeometry x="-500" y="100" width="60" height="20" as="geometry" />
        </mxCell>
        <mxCell id="OZgYHWr0lchqSJbdcPem-23" value="port_a_i(8)" style="text;html=1;align=right;verticalAlign=middle;resizable=1;points=[];autosize=0;strokeColor=none;fillColor=none;movable=1;rotatable=1;deletable=1;editable=1;locked=0;connectable=1;" vertex="1" parent="1">
          <mxGeometry x="-500" y="130" width="60" height="20" as="geometry" />
        </mxCell>
        <mxCell id="OZgYHWr0lchqSJbdcPem-24" value="port_b_i(8)" style="text;html=1;align=right;verticalAlign=middle;resizable=1;points=[];autosize=0;strokeColor=none;fillColor=none;movable=1;rotatable=1;deletable=1;editable=1;locked=0;connectable=1;" vertex="1" parent="1">
          <mxGeometry x="-500" y="160" width="60" height="20" as="geometry" />
        </mxCell>
        <mxCell id="OZgYHWr0lchqSJbdcPem-55" value="" style="group" vertex="1" connectable="0" parent="1">
          <mxGeometry x="-220" y="-160" width="200" height="210" as="geometry" />
        </mxCell>
        <mxCell id="OZgYHWr0lchqSJbdcPem-41" value="" style="whiteSpace=wrap;html=1;" vertex="1" parent="OZgYHWr0lchqSJbdcPem-55">
          <mxGeometry y="20" width="200" height="190" as="geometry" />
        </mxCell>
        <mxCell id="OZgYHWr0lchqSJbdcPem-42" value="RAM_data_i(8)" style="text;html=1;align=left;verticalAlign=middle;resizable=1;points=[];autosize=0;strokeColor=none;fillColor=none;movable=1;rotatable=1;deletable=1;editable=1;locked=0;connectable=1;" vertex="1" parent="OZgYHWr0lchqSJbdcPem-55">
          <mxGeometry y="30" width="100" height="20" as="geometry" />
        </mxCell>
        <mxCell id="OZgYHWr0lchqSJbdcPem-43" value="port_a_data_i(8)" style="text;html=1;align=left;verticalAlign=middle;resizable=1;points=[];autosize=0;strokeColor=none;fillColor=none;movable=1;rotatable=1;deletable=1;editable=1;locked=0;connectable=1;" vertex="1" parent="OZgYHWr0lchqSJbdcPem-55">
          <mxGeometry y="60" width="100" height="20" as="geometry" />
        </mxCell>
        <mxCell id="OZgYHWr0lchqSJbdcPem-44" value="port_b_data_i(8)" style="text;html=1;align=left;verticalAlign=middle;resizable=1;points=[];autosize=0;strokeColor=none;fillColor=none;movable=1;rotatable=1;deletable=1;editable=1;locked=0;connectable=1;" vertex="1" parent="OZgYHWr0lchqSJbdcPem-55">
          <mxGeometry y="90" width="100" height="20" as="geometry" />
        </mxCell>
        <mxCell id="OZgYHWr0lchqSJbdcPem-45" value="Data_Mux_inst" style="text;html=1;align=left;verticalAlign=middle;resizable=1;points=[];autosize=0;strokeColor=none;fillColor=none;movable=1;rotatable=1;deletable=1;editable=1;locked=0;connectable=1;" vertex="1" parent="OZgYHWr0lchqSJbdcPem-55">
          <mxGeometry width="133.33333333333334" height="20" as="geometry" />
        </mxCell>
        <mxCell id="OZgYHWr0lchqSJbdcPem-46" value="cs_ram_i(1)" style="text;html=1;align=left;verticalAlign=middle;resizable=1;points=[];autosize=0;strokeColor=none;fillColor=none;movable=1;rotatable=1;deletable=1;editable=1;locked=0;connectable=1;" vertex="1" parent="OZgYHWr0lchqSJbdcPem-55">
          <mxGeometry y="120" width="77.77777777777779" height="20" as="geometry" />
        </mxCell>
        <mxCell id="OZgYHWr0lchqSJbdcPem-47" value="PC_o(8)" style="text;html=1;align=right;verticalAlign=middle;resizable=1;points=[];autosize=0;strokeColor=none;fillColor=none;movable=1;rotatable=1;deletable=1;editable=1;locked=0;connectable=1;" vertex="1" parent="OZgYHWr0lchqSJbdcPem-55">
          <mxGeometry x="100" y="70" width="100" height="20" as="geometry" />
        </mxCell>
        <mxCell id="OZgYHWr0lchqSJbdcPem-48" value="addr_o(8)" style="text;html=1;align=right;verticalAlign=middle;resizable=1;points=[];autosize=0;strokeColor=none;fillColor=none;movable=1;rotatable=1;deletable=1;editable=1;locked=0;connectable=1;" vertex="1" parent="OZgYHWr0lchqSJbdcPem-55">
          <mxGeometry x="100" y="95" width="100" height="20" as="geometry" />
        </mxCell>
        <mxCell id="OZgYHWr0lchqSJbdcPem-49" value="data_o(8)" style="text;html=1;align=right;verticalAlign=middle;resizable=1;points=[];autosize=0;strokeColor=none;fillColor=none;movable=1;rotatable=1;deletable=1;editable=1;locked=0;connectable=1;" vertex="1" parent="OZgYHWr0lchqSJbdcPem-55">
          <mxGeometry x="100" y="120" width="100" height="20" as="geometry" />
        </mxCell>
        <mxCell id="OZgYHWr0lchqSJbdcPem-50" value="data_wr_o(1)" style="text;html=1;align=right;verticalAlign=middle;resizable=1;points=[];autosize=0;strokeColor=none;fillColor=none;movable=1;rotatable=1;deletable=1;editable=1;locked=0;connectable=1;" vertex="1" parent="OZgYHWr0lchqSJbdcPem-55">
          <mxGeometry x="100" y="150" width="100" height="20" as="geometry" />
        </mxCell>
        <mxCell id="OZgYHWr0lchqSJbdcPem-53" value="cs_port_a_i(1)" style="text;html=1;align=left;verticalAlign=middle;resizable=1;points=[];autosize=0;strokeColor=none;fillColor=none;movable=1;rotatable=1;deletable=1;editable=1;locked=0;connectable=1;" vertex="1" parent="OZgYHWr0lchqSJbdcPem-55">
          <mxGeometry y="150" width="100" height="20" as="geometry" />
        </mxCell>
        <mxCell id="OZgYHWr0lchqSJbdcPem-54" value="cs_port_b_i(1)" style="text;html=1;align=left;verticalAlign=middle;resizable=1;points=[];autosize=0;strokeColor=none;fillColor=none;movable=1;rotatable=1;deletable=1;editable=1;locked=0;connectable=1;" vertex="1" parent="OZgYHWr0lchqSJbdcPem-55">
          <mxGeometry y="180" width="100" height="20" as="geometry" />
        </mxCell>
        <mxCell id="OZgYHWr0lchqSJbdcPem-68" value="" style="group" vertex="1" connectable="0" parent="1">
          <mxGeometry x="650" y="30" width="180" height="180" as="geometry" />
        </mxCell>
        <mxCell id="OZgYHWr0lchqSJbdcPem-69" value="" style="whiteSpace=wrap;html=1;" vertex="1" parent="OZgYHWr0lchqSJbdcPem-68">
          <mxGeometry y="20" width="180" height="160" as="geometry" />
        </mxCell>
        <mxCell id="OZgYHWr0lchqSJbdcPem-70" value="clk_i(1)" style="text;html=1;align=left;verticalAlign=middle;resizable=1;points=[];autosize=0;strokeColor=none;fillColor=none;movable=1;rotatable=1;deletable=1;editable=1;locked=0;connectable=1;" vertex="1" parent="OZgYHWr0lchqSJbdcPem-68">
          <mxGeometry y="30" width="50" height="20" as="geometry" />
        </mxCell>
        <mxCell id="OZgYHWr0lchqSJbdcPem-71" value="cs_i(1)" style="text;html=1;align=left;verticalAlign=middle;resizable=1;points=[];autosize=0;strokeColor=none;fillColor=none;movable=1;rotatable=1;deletable=1;editable=1;locked=0;connectable=1;" vertex="1" parent="OZgYHWr0lchqSJbdcPem-68">
          <mxGeometry y="90" width="50" height="20" as="geometry" />
        </mxCell>
        <mxCell id="OZgYHWr0lchqSJbdcPem-72" value="reset_i(1)" style="text;html=1;align=left;verticalAlign=middle;resizable=1;points=[];autosize=0;strokeColor=none;fillColor=none;movable=1;rotatable=1;deletable=1;editable=1;locked=0;connectable=1;" vertex="1" parent="OZgYHWr0lchqSJbdcPem-68">
          <mxGeometry y="60" width="50" height="20" as="geometry" />
        </mxCell>
        <mxCell id="OZgYHWr0lchqSJbdcPem-73" value="Port_a_Out_inst" style="text;html=1;align=left;verticalAlign=middle;resizable=1;points=[];autosize=0;strokeColor=none;fillColor=none;movable=1;rotatable=1;deletable=1;editable=1;locked=0;connectable=1;" vertex="1" parent="OZgYHWr0lchqSJbdcPem-68">
          <mxGeometry width="120" height="20" as="geometry" />
        </mxCell>
        <mxCell id="OZgYHWr0lchqSJbdcPem-74" value="load_i(1)" style="text;html=1;align=left;verticalAlign=middle;resizable=1;points=[];autosize=0;strokeColor=none;fillColor=none;movable=1;rotatable=1;deletable=1;editable=1;locked=0;connectable=1;" vertex="1" parent="OZgYHWr0lchqSJbdcPem-68">
          <mxGeometry y="120" width="70" height="20" as="geometry" />
        </mxCell>
        <mxCell id="OZgYHWr0lchqSJbdcPem-75" value="data_o(8)" style="text;html=1;align=right;verticalAlign=middle;resizable=1;points=[];autosize=0;strokeColor=none;fillColor=none;movable=1;rotatable=1;deletable=1;editable=1;locked=0;connectable=1;" vertex="1" parent="OZgYHWr0lchqSJbdcPem-68">
          <mxGeometry x="90" y="90" width="90" height="20" as="geometry" />
        </mxCell>
        <mxCell id="OZgYHWr0lchqSJbdcPem-76" value="data_i(8)" style="text;html=1;align=left;verticalAlign=middle;resizable=1;points=[];autosize=0;strokeColor=none;fillColor=none;movable=1;rotatable=1;deletable=1;editable=1;locked=0;connectable=1;" vertex="1" parent="OZgYHWr0lchqSJbdcPem-68">
          <mxGeometry y="150" width="70" height="20" as="geometry" />
        </mxCell>
        <mxCell id="OZgYHWr0lchqSJbdcPem-77" value="" style="group" vertex="1" connectable="0" parent="1">
          <mxGeometry x="660" y="233" width="180" height="180" as="geometry" />
        </mxCell>
        <mxCell id="OZgYHWr0lchqSJbdcPem-78" value="" style="whiteSpace=wrap;html=1;" vertex="1" parent="OZgYHWr0lchqSJbdcPem-77">
          <mxGeometry y="20" width="180" height="160" as="geometry" />
        </mxCell>
        <mxCell id="OZgYHWr0lchqSJbdcPem-79" value="clk_i(1)" style="text;html=1;align=left;verticalAlign=middle;resizable=1;points=[];autosize=0;strokeColor=none;fillColor=none;movable=1;rotatable=1;deletable=1;editable=1;locked=0;connectable=1;" vertex="1" parent="OZgYHWr0lchqSJbdcPem-77">
          <mxGeometry y="30" width="50" height="20" as="geometry" />
        </mxCell>
        <mxCell id="OZgYHWr0lchqSJbdcPem-80" value="cs_i(1)" style="text;html=1;align=left;verticalAlign=middle;resizable=1;points=[];autosize=0;strokeColor=none;fillColor=none;movable=1;rotatable=1;deletable=1;editable=1;locked=0;connectable=1;" vertex="1" parent="OZgYHWr0lchqSJbdcPem-77">
          <mxGeometry y="90" width="50" height="20" as="geometry" />
        </mxCell>
        <mxCell id="OZgYHWr0lchqSJbdcPem-81" value="reset_i(1)" style="text;html=1;align=left;verticalAlign=middle;resizable=1;points=[];autosize=0;strokeColor=none;fillColor=none;movable=1;rotatable=1;deletable=1;editable=1;locked=0;connectable=1;" vertex="1" parent="OZgYHWr0lchqSJbdcPem-77">
          <mxGeometry y="60" width="50" height="20" as="geometry" />
        </mxCell>
        <mxCell id="OZgYHWr0lchqSJbdcPem-82" value="Port_b_Out_inst" style="text;html=1;align=left;verticalAlign=middle;resizable=1;points=[];autosize=0;strokeColor=none;fillColor=none;movable=1;rotatable=1;deletable=1;editable=1;locked=0;connectable=1;" vertex="1" parent="OZgYHWr0lchqSJbdcPem-77">
          <mxGeometry width="120" height="20" as="geometry" />
        </mxCell>
        <mxCell id="OZgYHWr0lchqSJbdcPem-83" value="load_i(1)" style="text;html=1;align=left;verticalAlign=middle;resizable=1;points=[];autosize=0;strokeColor=none;fillColor=none;movable=1;rotatable=1;deletable=1;editable=1;locked=0;connectable=1;" vertex="1" parent="OZgYHWr0lchqSJbdcPem-77">
          <mxGeometry y="120" width="70" height="20" as="geometry" />
        </mxCell>
        <mxCell id="OZgYHWr0lchqSJbdcPem-84" value="data_o(8)" style="text;html=1;align=right;verticalAlign=middle;resizable=1;points=[];autosize=0;strokeColor=none;fillColor=none;movable=1;rotatable=1;deletable=1;editable=1;locked=0;connectable=1;" vertex="1" parent="OZgYHWr0lchqSJbdcPem-77">
          <mxGeometry x="90" y="90" width="90" height="20" as="geometry" />
        </mxCell>
        <mxCell id="OZgYHWr0lchqSJbdcPem-85" value="data_i(8)" style="text;html=1;align=left;verticalAlign=middle;resizable=1;points=[];autosize=0;strokeColor=none;fillColor=none;movable=1;rotatable=1;deletable=1;editable=1;locked=0;connectable=1;" vertex="1" parent="OZgYHWr0lchqSJbdcPem-77">
          <mxGeometry y="150" width="70" height="20" as="geometry" />
        </mxCell>
        <mxCell id="OZgYHWr0lchqSJbdcPem-97" value="" style="group" vertex="1" connectable="0" parent="1">
          <mxGeometry x="1000" y="80" width="180" height="120" as="geometry" />
        </mxCell>
        <mxCell id="OZgYHWr0lchqSJbdcPem-87" value="" style="whiteSpace=wrap;html=1;" vertex="1" parent="OZgYHWr0lchqSJbdcPem-97">
          <mxGeometry y="20" width="180" height="100" as="geometry" />
        </mxCell>
        <mxCell id="OZgYHWr0lchqSJbdcPem-89" value="addr_i(8)" style="text;html=1;align=left;verticalAlign=middle;resizable=1;points=[];autosize=0;strokeColor=none;fillColor=none;movable=1;rotatable=1;deletable=1;editable=1;locked=0;connectable=1;" vertex="1" parent="OZgYHWr0lchqSJbdcPem-97">
          <mxGeometry y="60" width="50" height="20" as="geometry" />
        </mxCell>
        <mxCell id="OZgYHWr0lchqSJbdcPem-91" value="Add_Dec_inst" style="text;html=1;align=left;verticalAlign=middle;resizable=1;points=[];autosize=0;strokeColor=none;fillColor=none;movable=1;rotatable=1;deletable=1;editable=1;locked=0;connectable=1;" vertex="1" parent="OZgYHWr0lchqSJbdcPem-97">
          <mxGeometry width="120" height="20" as="geometry" />
        </mxCell>
        <mxCell id="OZgYHWr0lchqSJbdcPem-93" value="cs_port_a_o(1)" style="text;html=1;align=right;verticalAlign=middle;resizable=1;points=[];autosize=0;strokeColor=none;fillColor=none;movable=1;rotatable=1;deletable=1;editable=1;locked=0;connectable=1;" vertex="1" parent="OZgYHWr0lchqSJbdcPem-97">
          <mxGeometry x="90" y="30" width="90" height="20" as="geometry" />
        </mxCell>
        <mxCell id="OZgYHWr0lchqSJbdcPem-94" value="cs_port_b_o(1)" style="text;html=1;align=right;verticalAlign=middle;resizable=1;points=[];autosize=0;strokeColor=none;fillColor=none;movable=1;rotatable=1;deletable=1;editable=1;locked=0;connectable=1;" vertex="1" parent="OZgYHWr0lchqSJbdcPem-97">
          <mxGeometry x="90" y="60" width="90" height="20" as="geometry" />
        </mxCell>
        <mxCell id="OZgYHWr0lchqSJbdcPem-95" value="cs_ram_o(1)" style="text;html=1;align=right;verticalAlign=middle;resizable=1;points=[];autosize=0;strokeColor=none;fillColor=none;movable=1;rotatable=1;deletable=1;editable=1;locked=0;connectable=1;" vertex="1" parent="OZgYHWr0lchqSJbdcPem-97">
          <mxGeometry x="90" y="90" width="90" height="20" as="geometry" />
        </mxCell>
        <mxCell id="OZgYHWr0lchqSJbdcPem-27" value="" style="group" vertex="1" connectable="0" parent="1">
          <mxGeometry x="300" y="-260" width="180" height="70" as="geometry" />
        </mxCell>
        <mxCell id="OZgYHWr0lchqSJbdcPem-28" value="" style="whiteSpace=wrap;html=1;" vertex="1" parent="OZgYHWr0lchqSJbdcPem-27">
          <mxGeometry y="12.727272727272727" width="180" height="57.27272727272727" as="geometry" />
        </mxCell>
        <mxCell id="OZgYHWr0lchqSJbdcPem-32" value="ROM_inst" style="text;html=1;align=left;verticalAlign=middle;resizable=1;points=[];autosize=0;strokeColor=none;fillColor=none;movable=1;rotatable=1;deletable=1;editable=1;locked=0;connectable=1;" vertex="1" parent="OZgYHWr0lchqSJbdcPem-27">
          <mxGeometry y="0.11909090909090914" width="120" height="9.333333333333332" as="geometry" />
        </mxCell>
        <mxCell id="OZgYHWr0lchqSJbdcPem-38" value="pc_i(8)" style="text;html=1;align=left;verticalAlign=middle;resizable=1;points=[];autosize=0;strokeColor=none;fillColor=none;movable=1;rotatable=1;deletable=1;editable=1;locked=0;connectable=1;" vertex="1" parent="OZgYHWr0lchqSJbdcPem-27">
          <mxGeometry y="31.36" width="60" height="20" as="geometry" />
        </mxCell>
        <mxCell id="OZgYHWr0lchqSJbdcPem-39" value="ir_o(14)" style="text;html=1;align=right;verticalAlign=middle;resizable=1;points=[];autosize=0;strokeColor=none;fillColor=none;movable=1;rotatable=1;deletable=1;editable=1;locked=0;connectable=1;" vertex="1" parent="OZgYHWr0lchqSJbdcPem-27">
          <mxGeometry x="90" y="31.360000000000014" width="90" height="20" as="geometry" />
        </mxCell>
        <mxCell id="OZgYHWr0lchqSJbdcPem-103" style="edgeStyle=orthogonalEdgeStyle;rounded=0;orthogonalLoop=1;jettySize=auto;html=1;entryX=0;entryY=0.432;entryDx=0;entryDy=0;entryPerimeter=0;" edge="1" parent="1" source="cXgWGchafQ5C-qkIUdc8-185" target="OZgYHWr0lchqSJbdcPem-38">
          <mxGeometry relative="1" as="geometry">
            <Array as="points">
              <mxPoint x="510" y="-90" />
              <mxPoint x="510" y="-160" />
              <mxPoint x="280" y="-160" />
              <mxPoint x="280" y="-220" />
            </Array>
          </mxGeometry>
        </mxCell>
        <mxCell id="OZgYHWr0lchqSJbdcPem-104" style="edgeStyle=orthogonalEdgeStyle;rounded=0;orthogonalLoop=1;jettySize=auto;html=1;entryX=-0.004;entryY=0.474;entryDx=0;entryDy=0;entryPerimeter=0;exitX=1.023;exitY=0.516;exitDx=0;exitDy=0;exitPerimeter=0;" edge="1" parent="1" source="OZgYHWr0lchqSJbdcPem-39" target="cXgWGchafQ5C-qkIUdc8-179">
          <mxGeometry relative="1" as="geometry">
            <Array as="points">
              <mxPoint x="500" y="-218" />
              <mxPoint x="500" y="-270" />
              <mxPoint x="250" y="-270" />
              <mxPoint x="250" y="-30" />
            </Array>
          </mxGeometry>
        </mxCell>
        <mxCell id="OZgYHWr0lchqSJbdcPem-56" value="" style="group" vertex="1" connectable="0" parent="1">
          <mxGeometry x="1000" y="-130" width="180" height="180" as="geometry" />
        </mxCell>
        <mxCell id="OZgYHWr0lchqSJbdcPem-57" value="" style="whiteSpace=wrap;html=1;" vertex="1" parent="OZgYHWr0lchqSJbdcPem-56">
          <mxGeometry y="20" width="180" height="160" as="geometry" />
        </mxCell>
        <mxCell id="OZgYHWr0lchqSJbdcPem-58" value="clk_i(1)" style="text;html=1;align=left;verticalAlign=middle;resizable=1;points=[];autosize=0;strokeColor=none;fillColor=none;movable=1;rotatable=1;deletable=1;editable=1;locked=0;connectable=1;" vertex="1" parent="OZgYHWr0lchqSJbdcPem-56">
          <mxGeometry y="30" width="50" height="20" as="geometry" />
        </mxCell>
        <mxCell id="OZgYHWr0lchqSJbdcPem-59" value="cs_i(1)" style="text;html=1;align=left;verticalAlign=middle;resizable=1;points=[];autosize=0;strokeColor=none;fillColor=none;movable=1;rotatable=1;deletable=1;editable=1;locked=0;connectable=1;" vertex="1" parent="OZgYHWr0lchqSJbdcPem-56">
          <mxGeometry y="60" width="50" height="20" as="geometry" />
        </mxCell>
        <mxCell id="OZgYHWr0lchqSJbdcPem-60" value="wr_i(1)" style="text;html=1;align=left;verticalAlign=middle;resizable=1;points=[];autosize=0;strokeColor=none;fillColor=none;movable=1;rotatable=1;deletable=1;editable=1;locked=0;connectable=1;" vertex="1" parent="OZgYHWr0lchqSJbdcPem-56">
          <mxGeometry y="90" width="50" height="20" as="geometry" />
        </mxCell>
        <mxCell id="OZgYHWr0lchqSJbdcPem-61" value="RAM_inst" style="text;html=1;align=left;verticalAlign=middle;resizable=1;points=[];autosize=0;strokeColor=none;fillColor=none;movable=1;rotatable=1;deletable=1;editable=1;locked=0;connectable=1;" vertex="1" parent="OZgYHWr0lchqSJbdcPem-56">
          <mxGeometry width="120" height="20" as="geometry" />
        </mxCell>
        <mxCell id="OZgYHWr0lchqSJbdcPem-62" value="addr_i(8)" style="text;html=1;align=left;verticalAlign=middle;resizable=1;points=[];autosize=0;strokeColor=none;fillColor=none;movable=1;rotatable=1;deletable=1;editable=1;locked=0;connectable=1;" vertex="1" parent="OZgYHWr0lchqSJbdcPem-56">
          <mxGeometry y="120" width="70" height="20" as="geometry" />
        </mxCell>
        <mxCell id="OZgYHWr0lchqSJbdcPem-65" value="data_o(8)" style="text;html=1;align=right;verticalAlign=middle;resizable=1;points=[];autosize=0;strokeColor=none;fillColor=none;movable=1;rotatable=1;deletable=1;editable=1;locked=0;connectable=1;" vertex="1" parent="OZgYHWr0lchqSJbdcPem-56">
          <mxGeometry x="90" y="90" width="90" height="20" as="geometry" />
        </mxCell>
        <mxCell id="OZgYHWr0lchqSJbdcPem-67" value="data_i(8)" style="text;html=1;align=left;verticalAlign=middle;resizable=1;points=[];autosize=0;strokeColor=none;fillColor=none;movable=1;rotatable=1;deletable=1;editable=1;locked=0;connectable=1;" vertex="1" parent="OZgYHWr0lchqSJbdcPem-56">
          <mxGeometry y="150" width="70" height="20" as="geometry" />
        </mxCell>
        <mxCell id="OZgYHWr0lchqSJbdcPem-106" style="edgeStyle=orthogonalEdgeStyle;rounded=0;orthogonalLoop=1;jettySize=auto;html=1;exitX=0.999;exitY=0.46;exitDx=0;exitDy=0;exitPerimeter=0;" edge="1" parent="1" source="cXgWGchafQ5C-qkIUdc8-186">
          <mxGeometry relative="1" as="geometry">
            <mxPoint x="480.48" y="-59.990000000000094" as="sourcePoint" />
            <mxPoint x="1000" as="targetPoint" />
            <Array as="points">
              <mxPoint x="980" y="-61" />
              <mxPoint x="980" />
            </Array>
          </mxGeometry>
        </mxCell>
        <mxCell id="OZgYHWr0lchqSJbdcPem-107" style="edgeStyle=orthogonalEdgeStyle;rounded=0;orthogonalLoop=1;jettySize=auto;html=1;entryX=0.006;entryY=0.5;entryDx=0;entryDy=0;entryPerimeter=0;exitX=0.994;exitY=0.572;exitDx=0;exitDy=0;exitPerimeter=0;" edge="1" parent="1" source="cXgWGchafQ5C-qkIUdc8-186" target="OZgYHWr0lchqSJbdcPem-89">
          <mxGeometry relative="1" as="geometry">
            <mxPoint x="480" y="-26" as="sourcePoint" />
            <mxPoint x="1010" y="150" as="targetPoint" />
            <Array as="points">
              <mxPoint x="970" y="-59" />
              <mxPoint x="970" y="150" />
            </Array>
          </mxGeometry>
        </mxCell>
        <mxCell id="OZgYHWr0lchqSJbdcPem-109" style="edgeStyle=orthogonalEdgeStyle;rounded=0;orthogonalLoop=1;jettySize=auto;html=1;entryX=-0.008;entryY=0.509;entryDx=0;entryDy=0;entryPerimeter=0;" edge="1" parent="1" source="OZgYHWr0lchqSJbdcPem-49" target="cXgWGchafQ5C-qkIUdc8-184">
          <mxGeometry relative="1" as="geometry" />
        </mxCell>
        <mxCell id="OZgYHWr0lchqSJbdcPem-113" style="edgeStyle=orthogonalEdgeStyle;rounded=0;orthogonalLoop=1;jettySize=auto;html=1;entryX=0.009;entryY=0.567;entryDx=0;entryDy=0;entryPerimeter=0;" edge="1" parent="1" source="OZgYHWr0lchqSJbdcPem-25" target="OZgYHWr0lchqSJbdcPem-76">
          <mxGeometry relative="1" as="geometry">
            <Array as="points">
              <mxPoint x="560" y="-30" />
              <mxPoint x="560" y="191" />
            </Array>
          </mxGeometry>
        </mxCell>
        <mxCell id="OZgYHWr0lchqSJbdcPem-114" style="edgeStyle=orthogonalEdgeStyle;rounded=0;orthogonalLoop=1;jettySize=auto;html=1;entryX=-0.003;entryY=0.468;entryDx=0;entryDy=0;entryPerimeter=0;" edge="1" parent="1" source="OZgYHWr0lchqSJbdcPem-25" target="OZgYHWr0lchqSJbdcPem-85">
          <mxGeometry relative="1" as="geometry" />
        </mxCell>
        <mxCell id="OZgYHWr0lchqSJbdcPem-115" style="edgeStyle=orthogonalEdgeStyle;rounded=0;orthogonalLoop=1;jettySize=auto;html=1;entryX=-0.01;entryY=0.558;entryDx=0;entryDy=0;entryPerimeter=0;" edge="1" parent="1" source="OZgYHWr0lchqSJbdcPem-25" target="OZgYHWr0lchqSJbdcPem-67">
          <mxGeometry relative="1" as="geometry">
            <Array as="points">
              <mxPoint x="425" />
              <mxPoint x="920" />
              <mxPoint x="920" y="31" />
            </Array>
          </mxGeometry>
        </mxCell>
      </root>
    </mxGraphModel>
  </diagram>
</mxfile>
